<svg width="417" height="75" viewBox="0 0 417 75" fill="none" xmlns="http://www.w3.org/2000/svg">
<rect width="417" height="75" fill="white"/>
<path d="M52.1772 20.878C49.7068 21.3618 46.5577 23.9299 44.2744 20.878C43.2263 19.4636 41.8202 18.2143 40.323 16.9489C37.4408 14.418 35.3625 13.9648 31.4323 14.002C23.7216 14.1137 23.663 21.3165 27.4809 22.8425V51.3285C27.4809 51.3285 25.1683 52.3028 25.5052 54.2754C25.6923 55.2803 25.3554 56.7384 25.5052 57.2222C26.2912 60.3114 34.1859 58.7482 35.3837 57.2222C36.6563 55.5846 57.206 30.8723 58.1044 29.7185C60.4625 26.8154 58.0538 19.7614 52.1772 20.878ZM52.1772 27.7539C51.6158 28.3494 33.7302 44.2067 32.4201 45.4349C32.3827 45.4721 32.4201 45.4721 32.4201 45.4349V21.8603C32.6447 21.7858 33.1834 22.0091 33.408 21.8603C33.8197 21.5997 35.4358 22.0609 36.3716 22.8425C37.4196 23.7358 40.5622 26.1761 41.3108 26.7716C43.1449 28.186 46.3315 27.8138 49.2137 26.7716C49.85 26.5483 52.1772 26.7716 52.1772 26.7716C52.5515 26.5855 52.7013 27.2328 52.1772 27.7539Z" fill="#F4AE3B"/>
<mask id="mask0_1_3" style="mask-type:luminance" maskUnits="userSpaceOnUse" x="26" y="14" width="34" height="45">
<path d="M53.1772 20.878C50.7068 21.3618 47.5577 23.9299 45.2744 20.878C44.2263 19.4636 42.8202 18.2143 41.323 16.9489C38.4408 14.418 36.3625 13.9648 32.4323 14.002C24.7216 14.1137 24.663 21.3165 28.4809 22.8425V51.3285C28.4809 51.3285 26.1683 52.3028 26.5052 54.2754C26.6923 55.2803 26.3554 56.7384 26.5052 57.2222C27.2912 60.3114 35.1859 58.7482 36.3837 57.2222C37.6563 55.5846 58.206 30.8723 59.1044 29.7185C61.4625 26.8154 59.0538 19.7614 53.1772 20.878M53.1772 27.7539C52.6158 28.3494 34.7302 44.2067 33.4201 45.4349C33.3827 45.4721 33.4201 45.4721 33.4201 45.4349V21.8603C33.6447 21.7858 34.1834 22.0091 34.408 21.8603C34.8197 21.5997 36.4358 22.0609 37.3716 22.8425C38.4196 23.7358 41.5622 26.1761 42.3108 26.7716C44.1449 28.186 47.3315 27.8138 50.2137 26.7716C50.85 26.5483 53.1772 26.7716 53.1772 26.7716C53.5515 26.5855 53.7013 27.2328 53.1772 27.7539" fill="white"/>
</mask>
<g mask="url(#mask0_1_3)">
<path d="M32 51C32 51 52.4731 29.8587 52.8877 29.3364C53.3399 28.8513 52.3076 28.926 51.893 29.3364C51.4785 29.7841 32 49.0306 32 49.0306V51Z" fill="#DF7F14"/>
</g>
<mask id="mask1_1_3" style="mask-type:luminance" maskUnits="userSpaceOnUse" x="26" y="14" width="34" height="45">
<path d="M53.1772 20.878C50.7068 21.3618 47.5577 23.9299 45.2744 20.878C44.2263 19.4636 42.8202 18.2143 41.323 16.9489C38.4408 14.418 36.3625 13.9648 32.4323 14.002C24.7216 14.1137 24.663 21.3165 28.4809 22.8425V51.3285C28.4809 51.3285 26.1683 52.3028 26.5052 54.2754C26.6923 55.2803 26.3554 56.7384 26.5052 57.2222C27.2912 60.3114 35.1859 58.7482 36.3837 57.2222C37.6563 55.5846 58.206 30.8723 59.1044 29.7185C61.4625 26.8154 59.0538 19.7614 53.1772 20.878M53.1772 27.7539C52.6158 28.3494 34.7302 44.2067 33.4201 45.4349C33.3827 45.4721 33.4201 45.4721 33.4201 45.4349V21.8603C33.6447 21.7858 34.1834 22.0091 34.408 21.8603C34.8197 21.5997 36.4358 22.0609 37.3716 22.8425C38.4196 23.7358 41.5622 26.1761 42.3108 26.7716C44.1449 28.186 47.3315 27.8138 50.2137 26.7716C50.85 26.5483 53.1772 26.7716 53.1772 26.7716C53.5515 26.5855 53.7013 27.2328 53.1772 27.7539" fill="white"/>
</mask>
<g mask="url(#mask1_1_3)">
<path d="M30.0142 22.0228C30.0142 22.0228 30.0142 51.1717 30.0142 52.0048C30.0142 52.9136 28.356 53.2693 28.0151 53.0042C27.5606 52.7012 27.6742 52.6634 28.0151 53.0042C29.7952 54.6325 33.0508 53.5195 33.0129 52.0048V46.0084C33.0129 46.0084 33.0129 22.818 33.0129 22.0228C38.8077 29.5585 40.3773 30.413 52.0047 26.0204C53.1788 25.5659 54.3975 26.2624 55.0035 27.0198C55.4579 27.5878 55.6094 28.2991 55.0035 29.0186C54.5868 29.5108 33.5053 54.3971 33.0129 55.003C32.2555 55.9876 26.645 56.768 25.0164 54.0036C24.0317 52.2995 24.0547 53.5113 24.0168 54.0036C23.979 54.4959 24.0168 60 24.0168 60H40.0099L63 28.0192C63 28.0192 61.6463 23.712 56.003 21.0233C53.1625 19.6601 50.8701 23.4239 47.0069 22.0228C42.6892 20.4323 44.5416 14.0275 34.0125 14.0275C32.1188 14.0275 30.1888 13.7394 29.0147 15.0269C27.2725 17.0339 27.0222 20.7352 30.0142 22.0228Z" fill="#AC5810"/>
</g>
<mask id="mask2_1_3" style="mask-type:luminance" maskUnits="userSpaceOnUse" x="26" y="14" width="34" height="45">
<path d="M53.1772 20.878C50.7068 21.3618 47.5577 23.9299 45.2744 20.878C44.2263 19.4636 42.8202 18.2143 41.323 16.9489C38.4408 14.418 36.3625 13.9648 32.4323 14.002C24.7216 14.1137 24.663 21.3165 28.4809 22.8425V51.3285C28.4809 51.3285 26.1683 52.3028 26.5052 54.2754C26.6923 55.2803 26.3554 56.7384 26.5052 57.2222C27.2912 60.3114 35.1859 58.7482 36.3837 57.2222C37.6563 55.5846 58.206 30.8723 59.1044 29.7185C61.4625 26.8154 59.0538 19.7614 53.1772 20.878M53.1772 27.7539C52.6158 28.3494 34.7302 44.2067 33.4201 45.4349C33.3827 45.4721 33.4201 45.4721 33.4201 45.4349V21.8603C33.6447 21.7858 34.1834 22.0091 34.408 21.8603C34.8197 21.5997 36.4358 22.0609 37.3716 22.8425C38.4196 23.7358 41.5622 26.1761 42.3108 26.7716C44.1449 28.186 47.3315 27.8138 50.2137 26.7716C50.85 26.5483 53.1772 26.7716 53.1772 26.7716C53.5515 26.5855 53.7013 27.2328 53.1772 27.7539" fill="white"/>
</mask>
<g mask="url(#mask2_1_3)">
<path d="M33.9544 19.02C39.1978 18.5283 40.1555 27.2931 47.3155 26.0072C48.762 25.7424 51.0025 24.3134 52.0874 24.0108C53.1361 23.7461 53.4615 25.6668 52.0874 26.0072C50.4963 26.3854 43.05 29.962 42.5437 29.9999C42.2182 30.0377 33 22.0145 33 22.0145C33 22.0145 34.7138 22.0079 33.9544 19.02Z" fill="#B78759"/>
</g>
<path d="M36 45.7764V17.2516C36 16.9161 36 16.9161 36 17.2516V45.7764C36 46.0745 36 46.0745 36 45.7764ZM39 42.8255V18.2352C39 17.8998 39 17.8998 39 18.2352V42.8255C39 43.161 39 43.1237 39 42.8255ZM42 39.8747V21.186C42 20.8506 41 20.8506 41 21.186V39.8747C41.0379 40.1729 42 40.1729 42 39.8747ZM45 36.9239V24.1369C45 23.8014 44 23.8014 44 24.1369V36.9239C44 37.222 45 37.222 45 36.9239ZM48 33.973V25.1205C48 24.7851 48 24.7851 48 25.1205V33.973C48 34.2712 48 34.2712 48 33.973ZM51 31.0222V24.1369C51 23.8014 51 23.8014 51 24.1369V31.0222C51 31.3203 51 31.3203 51 31.0222Z" fill="#6CA4AE"/>
<path d="M35.1887 17C35.6131 17 36 16.6131 36 16.1887C36 15.7642 35.6131 16.1887 35.1887 16.1887C35.1887 16.6131 34.7642 17 35.1887 17Z" fill="#464C50"/>
<path d="M38.1825 18C38.5931 18 39 17.5931 39 17.1825C39 16.7719 38.5931 17.1825 38.1825 17.1825C38.1825 17.5931 37.7719 18 38.1825 18Z" fill="#464C50"/>
<path d="M41.1825 21C41.5931 21 42 20.5931 42 20.1825C42 19.7719 41.5931 20.1825 41.1825 20.1825C41.1825 20.5931 40.7719 21 41.1825 21Z" fill="#464C50"/>
<path d="M44.1699 24C44.552 24 45 23.552 45 23.1699C45 22.7877 44.552 23.1699 44.1699 23.1699C44.1699 23.552 43.7877 24 44.1699 24Z" fill="#464C50"/>
<path d="M47.1634 25C47.531 25 48 24.531 48 24.1634C48 23.7958 47.531 24.1634 47.1634 24.1634C47.1634 24.531 46.7958 25 47.1634 25Z" fill="#464C50"/>
<path d="M50.1634 24C50.531 24 51 23.531 51 23.1634C51 22.7958 50.531 23.1634 50.1634 23.1634C50.1634 23.531 49.7958 24 50.1634 24Z" fill="#464C50"/>
<path d="M107.914 21.2773V44.6211H103.449V33.1602H98.2109V29.5391H103.449V21.2773H107.914ZM80.7734 37.4141C86.0645 35.7617 88.4551 31.5957 88.4727 27.5V27.0078H82.0391V23.4219H99.4062V27.0078H93.043V27.5352C93.0254 31.2441 95.3105 35.1992 100.391 36.8516L98.1758 40.4023C94.6426 39.2422 92.1992 36.9219 90.8105 34.0566C89.3867 37.2383 86.8379 39.8223 83.0586 41.0703L80.7734 37.4141ZM86.6797 52.6719V42.582H91.1797V49.0859H108.688V52.6719H86.6797ZM140.522 38.8906V42.4766H128.077V53.2344H123.647V42.4766H111.343V38.8906H140.522ZM112.784 33.5117C119.253 32.7207 122.839 29.5918 123.313 26.4453H113.979V22.9297H137.921V26.4453H128.587C129.044 29.5918 132.577 32.7207 139.151 33.5117L137.534 37.0273C131.909 36.2715 127.884 33.8809 125.95 30.5938C123.999 33.8809 120.009 36.2715 114.436 37.0273L112.784 33.5117ZM168.279 24.0195V27.1484C168.261 31.0508 168.261 35.4277 167.083 41.8789L162.689 41.4922C163.726 35.6211 163.761 31.2793 163.779 27.5703H144.619V24.0195H168.279ZM141.736 49.332V45.6758H147.958V35.6211H152.423V45.6758H155.939V35.6211H160.369V45.6758H170.915V49.332H141.736ZM199.024 21.2422V53.2344H194.559V21.2422H199.024ZM172.27 44.1992C174.713 44.1816 177.508 44.1816 180.426 44.1113V41.4043C176.928 40.7715 174.643 38.5918 174.66 35.5859C174.643 32.0176 177.895 29.5742 182.606 29.5742C187.352 29.5742 190.656 32.0176 190.656 35.5859C190.656 38.5742 188.371 40.7539 184.856 41.4043V43.9531C187.545 43.8301 190.235 43.6191 192.801 43.2852L193.117 46.5898C186.104 47.8027 178.563 47.873 172.867 47.8555L172.27 44.1992ZM172.902 28.3086V24.793H180.426V21.3828H184.891V24.793H192.344V28.3086H172.902ZM178.914 35.5859C178.897 37.2734 180.426 38.1875 182.606 38.1875C184.856 38.1875 186.367 37.2734 186.367 35.5859C186.367 33.9336 184.856 33.002 182.606 32.9844C180.426 33.002 178.897 33.9336 178.914 35.5859ZM228.345 25.0742V28.625H221.877C221.912 32.1934 224.197 35.832 229.4 37.3086L227.185 40.8945C223.617 39.8574 221.138 37.6602 219.714 34.9004C218.291 37.8887 215.777 40.2617 212.103 41.4219L209.853 37.8711C215.021 36.3066 217.394 32.4746 217.412 28.625H210.978V25.0742H217.412V21.4531H221.947V25.0742H228.345ZM214.74 52.6719V42.8281H219.205V49.0859H236.642V52.6719H214.74ZM230.982 44.9023V21.2422H235.482V30.7344H239.806V34.3555H235.482V44.9023H230.982ZM270.024 25.2148V28.8711H265.875V32.1758H270.024V35.8672H265.875V39.9453H261.375V21.2422H265.875V25.2148H270.024ZM240.703 30.7344C240.686 26.1816 244.483 22.9824 249.492 23C254.45 22.9824 258.211 26.1816 258.211 30.7344C258.211 35.252 254.45 38.4863 249.492 38.4688C244.483 38.4863 240.686 35.252 240.703 30.7344ZM244.43 46.9414C244.412 42.9512 248.701 40.5957 255.399 40.5781C261.973 40.5957 266.174 42.9512 266.192 46.9414C266.174 50.8789 261.973 53.252 255.399 53.2344C248.701 53.252 244.412 50.8789 244.43 46.9414ZM245.133 30.7344C245.098 33.2305 246.979 34.6895 249.492 34.707C251.953 34.6895 253.834 33.2305 253.852 30.7344C253.834 28.2734 251.953 26.7441 249.492 26.7617C246.979 26.7441 245.098 28.2734 245.133 30.7344ZM248.93 46.9414C248.895 48.8223 251.198 49.6836 255.399 49.6836C259.547 49.6836 261.762 48.8223 261.762 46.9414C261.762 45.0781 259.547 44.1465 255.399 44.1289C251.198 44.1465 248.895 45.0781 248.93 46.9414ZM298.554 21.2422V53.2344H294.3V37.168H291.206V51.6875H287.093V21.7695H291.206V33.582H294.3V21.2422H298.554ZM271.8 45.9922V24.9336H283.718V28.5547H276.3V42.2305C279.394 42.1777 282.136 42.002 285.23 41.457L285.546 45.1133C281.644 45.8516 278.233 45.9746 274.015 45.9922H271.8ZM337.965 34.8828V38.1523H325.661V40.1562H334.485V47.9609H316.661V49.7188H335.329V53.0234H312.266V44.9375H330.055V43.3555H312.231V40.1562H321.196V38.1523H308.926V34.8828H337.965ZM310.051 30.6992C316.45 30.418 319.702 28.8887 320.633 27.043H311.668V23.7383H321.196V21.207H325.625V23.7383H335.223V27.043H326.17C327.084 28.8887 330.354 30.418 336.805 30.6992L335.504 34.0039C329.563 33.7051 325.432 32.2109 323.411 29.8027C321.389 32.2109 317.276 33.7051 311.282 34.0039L310.051 30.6992ZM351.237 26.2344C351.22 30.2246 353.452 34.0918 358.515 35.6914L356.124 39.2422C352.696 38.082 350.341 35.7793 348.987 32.8789C347.581 36.043 345.068 38.5215 341.464 39.8047L339.038 36.2188C344.4 34.5137 346.685 30.3301 346.702 25.9531V22.8945H351.237V26.2344ZM344.241 45.2891V41.7383H366.214V53.2344H361.749V45.2891H344.241ZM355.737 30.875V27.1836H361.749V21.2422H366.214V40.2969H361.749V30.875H355.737ZM398.892 39.6992V43.2148H386.377V53.2344H381.947V43.2148H369.607V39.6992H398.892ZM373.053 36.6055V22.4727H377.482V26.1641H390.912V22.4727H395.412V36.6055H373.053ZM377.482 33.0195H390.912V29.6797H377.482V33.0195Z" fill="black"/>
</svg>
